# xmcd
#
# Track frame offsets: 
#        150
#        17614
#        37736
#        65991
#        82038
#        98276
#        105722
#        109488
#        127076
#        161204
#        194349
#        215268
#        245418
#
# Disc length: 3728 seconds
#
# Revision: 3
# Processed by: cddbd v1.5.2PL0 Copyright (c) Steve Scherf et al.
# Submitted via: ExactAudioCopyFreeDBPlugin 1.0
#
DISCID=b20e8e0d
DTITLE=Duran Duran - Big Thing (2010 Reissue) [Disc 2]
DYEAR=1988
DGENRE=New Wave
TTITLE0=I Don't Want Your Love [Shep Pettibone 7'' Mix]
TTITLE1=All She Wants Is [45 Mix]
TTITLE2=I Believe - All I Need To Know [Full Version]
TTITLE3=The Krush Brothers LSD Edit
TTITLE4=Palomino [Edit]
TTITLE5=God (London)
TTITLE6=This Is How A Road Gets Made
TTITLE7=Big Thing [7'' Mix]
TTITLE8=I Don't Want Your Love [Big Mix]
TTITLE9=All She Wants Is [US Master Mix]
TTITLE10=Drug (It's Just A State Of Mind) [Rmx]
TTITLE11=Big Thing [12'' Mix]
TTITLE12=All She Wants Is [Eurohouse Mix]
EXTD=YEAR: 1988
EXTT0=
EXTT1=
EXTT2=
EXTT3=
EXTT4=
EXTT5=
EXTT6=
EXTT7=
EXTT8=
EXTT9=
EXTT10=
EXTT11=
EXTT12=
PLAYORDER=
